<svg xmlns="http://www.w3.org/2000/svg" viewBox="0 0 24 24"><path d="M16 1.5a1.5 1.5 0 1 1-3 0 1.5 1.5 0 0 1 3 0zm6 6a1.5 1.5 0 1 1-3 0 1.5 1.5 0 0 1 3 0zm-6.793.707 6.5-6.5L20.293.293l-6.5 6.5z"/><path fill-rule="evenodd" d="M5.793 2.293a1 1 0 0 1 1.414 0l12.5 12.5a1 1 0 0 1-1.414 1.414l-.553-.552-1.829.653c.058.263.089.536.089.816C16 19.304 14.169 21 12 21c-1.502 0-2.841-.813-3.524-2.037l-2.665.952a1 1 0 0 1-1.518 1.292l-3.5-3.5a1 1 0 0 1 1.292-1.518l4.26-11.93-.552-.552a1 1 0 0 1 0-1.414zm4.625 15.977c.359.438.922.73 1.582.73 1.145 0 2-.88 2-1.876a1.94 1.94 0 0 0-.005-.132zm-6.158.075-.605-.605L7.91 5.824l8.265 8.266z"/></svg>