<svg xmlns="http://www.w3.org/2000/svg" viewBox="0 0 24 24"><path fill-rule="evenodd" d="M17 7c0-1.48-.804-2.773-2-3.465V1h-2v2h-2V1H9v2.535A3.998 3.998 0 0 0 7 7v.416A5.018 5.018 0 0 0 4.416 10H3V8H1v3a1 1 0 0 0 1 1h2v1H1v2h3c0 1.06.207 2.074.582 3H2a1 1 0 0 0-1 1v3h2v-2h2.755A7.985 7.985 0 0 0 12 23a7.985 7.985 0 0 0 6.245-3H21v2h2v-3a1 1 0 0 0-1-1h-2.581A7.98 7.98 0 0 0 20 15h3v-2h-3v-1h2a1 1 0 0 0 1-1V8h-2v2h-1.416A5.019 5.019 0 0 0 17 7.416V7zm-4 13.917V9h2a3 3 0 0 1 3 3v3a6.002 6.002 0 0 1-5 5.917zM11 9H9a3 3 0 0 0-3 3v3a6.002 6.002 0 0 0 5 5.917V9zm2-4a2 2 0 0 1 2 2H9a2 2 0 0 1 2-2h2z"/></svg>