<svg viewBox="0 0 24 24" xmlns="http://www.w3.org/2000/svg"><path fill-rule="evenodd" d="M17 7c0-1.48-.804-2.773-2-3.465V1h-2v2h-2V1H9v2.535A3.998 3.998 0 007 7v.416A5.018 5.018 0 004.416 10H3V8H1v3a1 1 0 001 1h2v1H1v2h3c0 1.06.207 2.074.582 3H2a1 1 0 00-1 1v3h2v-2h2.755A7.985 7.985 0 0012 23a7.985 7.985 0 006.245-3H21v2h2v-3a1 1 0 00-1-1h-2.581c.375-.926.581-1.94.581-3h3v-2h-3v-1h2a1 1 0 001-1V8h-2v2h-1.416A5.019 5.019 0 0017 7.416V7zm-4 13.917V9h2a3 3 0 013 3v3a6.002 6.002 0 01-5 5.917zM11 9H9a3 3 0 00-3 3v3a6.002 6.002 0 005 5.917V9zm2-4a2 2 0 012 2H9a2 2 0 012-2h2z"></path></svg>
