<svg viewBox="0 0 24 24" xmlns="http://www.w3.org/2000/svg"><path fill-rule="evenodd" d="M6.667 2.5V.833H5V2.5h-.833l-.147.004A2.5 2.5 0 001.667 5v11.667l.004.146a2.5 2.5 0 002.496 2.354h11.666l.147-.005a2.5 2.5 0 002.353-2.495V5l-.004-.147A2.5 2.5 0 0015.833 2.5H15V.833h-1.667V2.5H6.667zM3.333 8.333h13.334v8.334l-.006.097a.833.833 0 01-.828.736H4.167l-.098-.006a.834.834 0 01-.736-.827V8.333z"></path><path d="M10.833 12.5v-1.667H9.167V12.5H7.5v1.667h1.667v1.666h1.666v-1.666H12.5V12.5h-1.667z"></path></svg>
