<svg xmlns="http://www.w3.org/2000/svg" viewBox="0 0 24 24"><path fill-rule="evenodd" d="M2.585 15.384a1 1 0 1 1 1.882-.677A8.003 8.003 0 0 0 11.997 20a8 8 0 1 0 0-16 1 1 0 1 1 0-2c5.523 0 10 4.477 10 10s-4.477 10-10 10a10.003 10.003 0 0 1-9.412-6.616zM8.662 2.57a1 1 0 1 1 .667 1.885 7.95 7.95 0 0 0-1.114.494 1 1 0 1 1-.947-1.762 9.95 9.95 0 0 1 1.394-.617zM5.804 5.39a1 1 0 0 0-1.41.11 9.95 9.95 0 0 0-.899 1.232 1 1 0 1 0 1.701 1.052 7.95 7.95 0 0 1 .718-.984 1 1 0 0 0-.11-1.41zm-3.64 4.783a1 1 0 0 1 1.966.365A7.95 7.95 0 0 0 4 11.75a1 1 0 0 1-2-.06c.016-.51.07-1.016.163-1.517zM12.996 12V6h-2v5.307l-3.35 1.257.702 1.872 4-1.5a1 1 0 0 0 .648-.936z"/></svg>