<svg xmlns="http://www.w3.org/2000/svg" viewBox="0 0 24 24"><path fill-rule="evenodd" d="m16.965 3.934-.243 1.586a8.004 8.004 0 0 1-2.443 14.13l-1.65 2.309c5.23-.325 9.371-4.67 9.371-9.98a9.998 9.998 0 0 0-4.998-8.662c.008.199-.004.405-.037.617zM4 11.978a8.004 8.004 0 0 1 5.72-7.67l1.65-2.31C6.142 2.322 2 6.667 2 11.978c0 3.7 2.01 6.932 4.998 8.661a3.272 3.272 0 0 1 .037-.617l.244-1.585A7.989 7.989 0 0 1 4 11.978zM14.988 3.63l-.822 5.348H17.5a1 1 0 0 1 .814 1.581l-7.5 10.5-.071.09c-.64.726-1.886.18-1.731-.823l.823-5.348H6.5a1 1 0 0 1-.814-1.581l7.5-10.5c.612-.857 1.963-.308 1.802.733zm-2.615 3.846-3.93 5.502H11l.113.007a1 1 0 0 1 .875 1.145l-.36 2.35 3.929-5.502H13a1 1 0 0 1-.988-1.152l.361-2.35z"/></svg>