<svg xmlns="http://www.w3.org/2000/svg" viewBox="0 0 24 24"><path fill-rule="evenodd" d="M11 2a1 1 0 1 0 2 0 1 1 0 0 0-2 0zM8 4.072A1 1 0 1 1 7 2.34a1 1 0 0 1 1 1.732zM15 20a1 1 0 0 0 1-1v-2.255a7 7 0 1 0-8 0V19a1 1 0 0 0 1 1h6zm-.5-4.668a1 1 0 0 0-.5.865V18h-4v-1.803a1 1 0 0 0-.5-.865 5 5 0 1 1 4.999 0zm0 5.668c1.333 0 1.333 2 0 2h-5c-1.333 0-1.333-2 0-2h5zM3 12a1 1 0 1 0 0-2 1 1 0 0 0 0 2zm19-1a1 1 0 1 1-2 0 1 1 0 0 1 2 0zM3.706 7.366a1 1 0 1 0 1-1.732 1 1 0 0 0-1 1.732zM16 4.072a1 1 0 1 1 1-1.732 1 1 0 0 1-1 1.732zm3.294 1.562a1 1 0 1 0 1 1.732 1 1 0 0 0-1-1.732z"/></svg>