<svg xmlns="http://www.w3.org/2000/svg" viewBox="0 0 24 24"><path fill-rule="evenodd" d="M13.17 19a3.001 3.001 0 0 0 5.66 0H21a1 1 0 0 0 1-1v-3h1v-2h-5v2h2v2h-1.17a3.001 3.001 0 0 0-5.66 0H10V6h12V5a1 1 0 0 0-1-1H9a1 1 0 0 0-1 1v1H4.556C2.033 6 0 8.096 0 10.667V18a1 1 0 0 0 1 1h1.17a3.001 3.001 0 0 0 5.66 0h5.34zM8 17V8H4.556C3.15 8 2 9.187 2 10.667V12h5v2H2v3h.17a3.001 3.001 0 0 1 5.66 0H8zm-2 1a1 1 0 1 1-2 0 1 1 0 0 1 2 0zm10 1a1 1 0 1 0 0-2 1 1 0 0 0 0 2zm0-12v2h8V7h-8zm1 5v-2h5v2h-5z"/></svg>