<svg xmlns="http://www.w3.org/2000/svg" viewBox="0 0 24 24"><path fill-rule="evenodd" d="M4.317 12.449 6 11.887V20a1 1 0 0 0 1 1h10a1 1 0 0 0 1-1v-8.113l1.684.562a1 1 0 0 0 1.23-.543l2-4.5a1 1 0 0 0-.542-1.334l-5-2A1 1 0 0 0 17 4h-2a1 1 0 0 0-.993.883l-.011.273C13.93 6.234 13.196 7 12 7c-1.253 0-2-.84-2-2a1 1 0 0 0-1-1H7a1 1 0 0 0-.371.072l-5 2a1 1 0 0 0-.543 1.334l2 4.5a1 1 0 0 0 1.23.543zm-.981-4.906L7.193 6h.92l.05.19C8.622 7.821 10.038 9 12 9c2.037 0 3.485-1.271 3.887-3h.92l3.858 1.543-1.21 2.721-2.138-.713A1 1 0 0 0 16 10.5V19H8v-8.5a1 1 0 0 0-1.316-.949l-2.139.713-1.21-2.721z"/></svg>