<svg xmlns="http://www.w3.org/2000/svg" viewBox="0 0 24 24"><path fill-rule="evenodd" d="M18 4a2 2 0 0 0-2-2h-3a2 2 0 0 0-2 2v1.535a4.007 4.007 0 0 0-1.874 2.467A5.108 5.108 0 0 0 9 8l-.217.005A5 5 0 0 0 4 13H3a1 1 0 0 0-.99 1.141l1 7A1 1 0 0 0 4 22h16a1 1 0 0 0 .99-.859l1-7A1 1 0 0 0 21 13h-1V9l-.007-.232a4 4 0 0 0-1.992-3.232L18 4zM4.867 20l-.714-5h15.694l-.714 5H4.867zM16 7h-3a2 2 0 0 0-1.924 1.45 5.003 5.003 0 0 1 2.919 4.318L14 13h4V9a2 2 0 0 0-1.85-1.995L16 7zm-9.995 5.824A3 3 0 0 1 12 13H6l.005-.176zM16 4h-3v1h3V4zm-1 14v-2H9v2h6z"/></svg>