<svg xmlns="http://www.w3.org/2000/svg" viewBox="0 0 18 18"><path d="M11.25 10.5H15V12h-3.75v-1.5z"/><path fill-rule="evenodd" d="M3 3h12a2.25 2.25 0 0 1 2.25 2.25v7.5A2.25 2.25 0 0 1 15 15H3a2.25 2.25 0 0 1-2.25-2.25v-7.5A2.25 2.25 0 0 1 3 3zm0 1.5a.75.75 0 0 0-.75.75v7.5c0 .414.336.75.75.75h3v-2.69l-.97.97-1.06-1.06.988-.989A2.25 2.25 0 1 1 6 5.378V4.5H3zm3 3.75V7.5a.75.75 0 1 0-.75.75H6zm1.5-2.872V4.5H15a.75.75 0 0 1 .75.75v7.5a.75.75 0 0 1-.75.75H7.5v-2.69l.97.97 1.06-1.06-.988-.989A2.25 2.25 0 1 0 7.5 5.378zm0 2.872h.75a.75.75 0 1 0-.75-.75v.75z"/></svg>