<svg viewBox="0 0 24 24" xmlns="http://www.w3.org/2000/svg"><path fill-rule="evenodd" d="M6.797 3.545a1 1 0 01.631.584l.924 2.309.628.628 2.047.341.64-.962a1 1 0 01.59-.415l2-.5a1 1 0 01.486 0l2 .5a1 1 0 01.312.138l1.5 1A1 1 0 0119 8v2.377l.403 1.612.804.804a1 1 0 01.187 1.154l-.626 1.254 1.332.999a1 1 0 01.232.245l1 1.5a1 1 0 01-.125 1.262l-2 2a1 1 0 01-.831.285l-4-.5a1 1 0 01-.825-.676l-.164-.494-1.516.607a1 1 0 01-.926-.097l-3-2a1 1 0 01-.34-.385L7.883 16.5H6.5a1 1 0 01-.98-.804l-.441-2.203-1.786-1.786a1 1 0 01-.263-.95l.384-1.538L2.2 7.6A1 1 0 012 7V4.5a1 1 0 011.447-.894l1.481.74 1.017-.678a1 1 0 01.852-.123zM4 6.118v.549L5.3 8.4a1 1 0 01.17.843l-.363 1.45 1.6 1.6a1 1 0 01.274.51L7.32 14.5H8.5a1 1 0 01.894.553l.882 1.762 2.341 1.561 2.012-.805a1 1 0 011.32.613l.3.902 2.89.361 1.074-1.074-.45-.676L17.9 16.3a1 1 0 01-.294-1.247l.677-1.356-.49-.49a.999.999 0 01-.263-.465l-.5-2A.996.996 0 0117 10.5V8.535l-.91-.607-1.59-.397-1.382.345-.786 1.179a1 1 0 01-.996.431l-3-.5a1 1 0 01-.543-.279l-1-1a1 1 0 01-.221-.336l-.543-1.355-.474.316a1 1 0 01-1.002.062L4 6.118z"></path></svg>
