<svg xmlns="http://www.w3.org/2000/svg" viewBox="0 0 24 24"><path fill-rule="evenodd" d="M3 21.02l1.26-4.478a8.96 8.96 0 01-1.237-4.554C3.023 7.032 7.055 3 12.012 3 16.968 3 21 7.032 21 11.989c0 4.956-4.032 8.988-8.988 8.988a8.977 8.977 0 01-4.395-1.146L3 21.02zm4.853-2.824l.275.168a7.448 7.448 0 003.884 1.088c4.115 0 7.463-3.348 7.463-7.464 0-4.115-3.348-7.463-7.463-7.463-4.116 0-7.464 3.348-7.464 7.463 0 1.434.407 2.827 1.178 4.027l.186.289-.726 2.578 2.667-.686zm1.05-10.423l.584.032a.302.302 0 01.261.183l.85 1.988a.302.302 0 01-.05.316l-.74.856a.224.224 0 00-.027.25c.974 1.876 2.749 2.619 3.279 2.805.09.032.19.002.249-.074l.774-1.003a.302.302 0 01.365-.09l1.971.909c.129.059.2.2.17.337l-.094.435c-.105.491-.396.925-.819 1.196-.534.341-1.226.509-2.105.26-2.73-.772-4.273-2.579-5.101-3.708-.829-1.13-1.149-2.26-.942-3.181.14-.62.591-1.094.874-1.34a.705.705 0 01.501-.17z"></path></svg>
