<svg xmlns="http://www.w3.org/2000/svg" viewBox="0 0 24 24"><path fill-rule="evenodd" d="M16.124 2c.128 1.172-.343 2.347-1.04 3.194-.7.845-1.845 1.503-2.968 1.415-.152-1.149.415-2.345 1.062-3.094C13.9 2.67 15.118 2.04 16.124 2zm3.623 6.828c-.205.126-2.17 1.343-2.145 3.799.025 2.96 2.54 3.987 2.678 4.043a.111.111 0 01.005.002c0 .004-.003.011-.006.022-.06.19-.464 1.486-1.379 2.823-.834 1.218-1.697 2.431-3.06 2.457-.655.012-1.093-.177-1.548-.374-.476-.207-.971-.42-1.754-.42-.82 0-1.339.22-1.838.433-.433.184-.85.362-1.439.386-1.315.049-2.316-1.316-3.156-2.531-1.72-2.482-3.031-7.016-1.268-10.077.874-1.52 2.44-2.482 4.137-2.507.733-.014 1.442.268 2.062.514.474.188.897.356 1.238.356.307 0 .719-.162 1.198-.351.755-.298 1.68-.662 2.632-.566.652.027 2.482.263 3.657 1.982l-.014.009z"></path></svg>
