<svg xmlns="http://www.w3.org/2000/svg" viewBox="0 0 620 620"><path d="M602.1 570.9c-21.7-22-45.1-40.4-36.3-90.4 9.7-42.8 20.1-41.8 36.5-107 10.3-47 11-122.9-20-188.6-33.7-73.5-89.6-126.1-169.8-158.2-59.9-21.1-124.7-23.4-185.7-6.5-24.3 8-146.4 44-199.1 188.5-7.6 19.9-37.5 109.1 7 218.8 31.3 67.2 70 113.6 148.7 154 90.5 42.5 181.2 30 232.4 9.5 25.8-10.4 45.1-22.9 56.8-21.4 11.7 2.7 24.2 11 41 16.5 19.6 5.1 38 8.2 70.8 7.3 11.8-1.1 36.7-5.3 17.7-22.5zm-69.1-22c-25.3-6.6-28.1-11.6-48.6-19-5.6-1.2-21.7-6.8-59.1 11.9-53.9 26.5-95.1 26.8-122.4 26.8-149.3-5.2-211.1-120.8-217.3-131.5-44.8-74.3-34.2-145.7-31-173.1 19.9-92.8 64.1-130.8 86.7-151.1 70.3-61.6 137.6-61.8 176.8-61.8 47.2 0 93.4 14.3 132.3 41 51.2 32.4 91.9 90.1 107.7 144.5 21.4 71.7 9.2 132.8-24.5 200.6-29.6 58.5-.6 111.7-.6 111.7z"/><path d="M210.8 378.5h66.7c17.7-.2 32.2 14 32.4 31.7s-14 32.2-31.7 32.4h-67.4c-17.7.2-32.2-14-32.4-31.7s14-32.2 31.7-32.4zm-.1-97.8H408c17.6 0 31.9 14.3 31.9 31.9s-14.3 31.9-31.9 31.9H210.7c-17.6 0-31.9-14.3-31.9-31.9s14.3-31.9 31.9-31.9zm131-98.4h66.7c17.7-.2 32.1 14 32.3 31.7s-14 32.1-31.7 32.3h-67.4c-17.7.2-32.1-14-32.3-31.7s14-32.1 31.7-32.3z"/></svg>