<svg xmlns="http://www.w3.org/2000/svg" viewBox="0 0 24 24"><path fill-rule="evenodd" d="M7.234 4.271c1.32-.152 2.393.844 2.526 1.983a2.299 2.299 0 01-2.004 2.553 2.285 2.285 0 01-2.557-2.004c-.154-1.362.849-2.39 2.035-2.532zm4.694 5.827l.01-1.26-1.718-.01c.07-.147.144-.258.22-.372.134-.2.273-.41.404-.839C11.99 3.814 6.99 1.292 4.585 4.464c-1.34 1.76-.603 4.028.798 4.994.94.64 1.616.65 2.925.65.174 0 .451.002.777.005.999.006 2.458.016 2.843-.015zm-4.326 8.449c-.13-.005-.243-.008-.344-.01-.395-.008-.616-.013-1.108-.17-4.101-1.303-3.64-5.604-1.135-7.048.875-.506 1.594-.503 2.635-.5l.28.001h10.4c.083 0 .186-.003.299-.006.446-.012 1.06-.03 1.297.108.399.224.512.763.123 1.088-.265.23-.758.215-1.202.2a9.478 9.478 0 00-.302-.007H9.853c-.21 0-.477-.005-.77-.011-.9-.019-2.052-.043-2.615.072-.93.194-1.636.784-1.953 1.506-.45 1.027-.092 2.003.5 2.582.708.703 1.265.9 2.588.817v-.735c-.149-.026-.265-.026-.375-.025-.187 0-.358.001-.647-.128a1.874 1.874 0 01-.696-.539c-.368-.447-.542-1.26-.194-1.84.57-.987 2.17-.977 3.566-.968l.382.002c1.635.005 3.267.007 4.898.01 1.634.002 3.267.005 4.9.01-.011.173-.349 1.088-.44 1.322-.325.041-6.529.022-9.302.013l-1.253-.003c-.105 0-.22-.005-.342-.01-.457-.022-.982-.046-1.233.203-.184.194-.123.407.051.57.153.133.44.142.685.1v-.354h2.2v.355l9.122-.06c.043.028.06.033.067.035.003 0 .004.001.005.002l.004.009a.73.73 0 00.047.106l.378 1.078-9.624.081v.448l-.007.325 9.692-.01c.43 0 .819.224.829.661.026.804-.998.76-1.786.725a9.774 9.774 0 00-.413-.013c-.986 0-1.932-.005-2.864-.01a285.335 285.335 0 00-5.478.01l-.024 2.42-.092-.101c-.092-.102-.798-1.272-.972-1.607-.197.294-.347.56-.486.807l-.015.027a29.77 29.77 0 00-.055.1c-.081.146-.16.287-.252.429l-.276.315v-2.382zM16.94 4.322c-1.095.214-2.087 1.302-1.8 2.695.225 1.078 1.299 2.044 2.68 1.79 1.124-.214 2.075-1.292 1.83-2.675a2.302 2.302 0 00-2.71-1.81zm-4 4.536l1.73-.02c-.522-.59-.931-1.689-.758-2.767.502-3.224 4.593-4.027 6.382-1.596 1.156 1.556.87 3.793-.808 5.003-.88.64-1.687.65-2.945.65h-3.6v-1.27z"></path></svg>
