<svg xmlns="http://www.w3.org/2000/svg" viewBox="0 0 24 24"><path d="M20.017 6.667c-.348 2.445-1.803 4.608-3.962 5.889l-2.418 1.434a1.093 1.093 0 0 1-1.46-.322l-2.91-4.334C7.765 7.101 4.697 6.476 2.41 7.938L1 8.84l6.46 9.348C8.674 19.946 10.704 21 12.876 21h8.507l-3.522-5.605-1.836 1.102 1.506 2.397h-4.655a4.41 4.41 0 0 1-3.632-1.886l-5.21-7.54c1.222-.504 2.676-.1 3.43 1.022l2.91 4.334c.956 1.422 2.893 1.85 4.38.966l2.418-1.434c2.713-1.61 4.542-4.327 4.979-7.399L23 1 10.55 8.666l1.15 1.782 8.527-5.25-.21 1.469z"/></svg>