<svg xmlns="http://www.w3.org/2000/svg" viewBox="0 0 24 24"><path fill-rule="evenodd" d="m2.78 5.374.068.096L6 10.513V5h2v9c0 .964-1.212 1.35-1.78.626l-.068-.096L3 9.487V15H1V6c0-.924 1.113-1.318 1.706-.711l.074.085zM18 11.238V5h-2v9l.006.114c.09.855 1.188 1.215 1.762.526l1.732-2.078 1.732 2.078.078.084c.616.598 1.69.172 1.69-.724V5h-2v6.238l-.732-.878-.084-.09a1 1 0 0 0-1.452.09l-.732.878zM23 19v-2H1v2h22zM15 7V5h-5l-.117.007A1 1 0 0 0 9 6.003l.022 8 .007.117a1 1 0 0 0 1 .88l4.978-.035-.014-2-3.974.028-.006-1.994L14 11V9h-2.992l-.005-2H15z"/></svg>