<svg xmlns="http://www.w3.org/2000/svg" viewBox="0 0 24 24"><path fill-rule="evenodd" d="M13 1h-2v2.5H5a1 1 0 0 0-.928 1.371L4.923 7l-.851 2.129A1 1 0 0 0 5 10.5h6v1H6a1 1 0 0 0-.928.629l-1 2.5a1 1 0 0 0 0 .742l1 2.5A1 1 0 0 0 6 18.5h5v4h2v-4h6a1 1 0 0 0 .928-1.371L19.078 15l.851-2.129A1 1 0 0 0 19 11.5h-6v-1h5a1 1 0 0 0 .928-.629l1-2.5a1 1 0 0 0 0-.742l-1-2.5A1 1 0 0 0 18 3.5h-5V1zM6.928 6.629 6.477 5.5h10.846l.6 1.5-.6 1.5H6.477l.451-1.129a1 1 0 0 0 0-.742zM6.677 13.5h10.846l-.451 1.129a1 1 0 0 0 0 .742l.451 1.129H6.677l-.6-1.5.6-1.5z"/></svg>