<svg xmlns="http://www.w3.org/2000/svg" viewBox="0 0 24 24"><path fill-rule="evenodd" d="M12 4.79a6.042 6.042 0 0 0-4.05-1.54C4.702 3.25 2 5.79 2 9.007c0 1.424.535 2.725 1.413 3.724.474.54 2.456 2.61 4.29 4.512a1758.77 1758.77 0 0 0 3.28 3.394l.299.309a1 1 0 0 0 1.434.002l.303-.311a1178.172 1178.172 0 0 0 3.316-3.419c1.846-1.912 3.861-4.016 4.345-4.595A5.624 5.624 0 0 0 22 9.007c0-3.217-2.702-5.757-5.95-5.757A6.042 6.042 0 0 0 12 4.79zm6.207 6.417a1 1 0 0 0-1.414-1.414L12 14.586l-1.793-1.793a1 1 0 0 0-1.414 1.414l2.5 2.5a1 1 0 0 0 1.414 0l5.5-5.5z"/></svg>