<svg xmlns="http://www.w3.org/2000/svg" viewBox="0 0 24 24"><path fill-rule="evenodd" d="M5.793 1.293a1 1 0 0 1 1.414 0L12.5 6.586l1.836-1.836 5.414 5.414L17.914 12l5.293 5.293a1 1 0 0 1 0 1.414l-4.5 4.5a1 1 0 0 1-1.414 0L12 17.914l-3.293 3.293a1 1 0 0 1-.444.258l-5.5 1.5a1 1 0 0 1-1.228-1.228l1.5-5.5a1 1 0 0 1 .258-.444l2.5-2.5.003-.004.79-.789-5.293-5.293a1 1 0 0 1 0-1.414l4.5-4.5zM8 11.086 6.414 9.5l1.293-1.293a1 1 0 0 0-1.414-1.414L5 8.086 3.414 6.5 6.5 3.414 11.086 8 8 11.086zm8.414 8.414L18 21.086 21.086 18 16.5 13.414 13.414 16.5 15 18.086l1.293-1.293a1 1 0 0 1 1.414 1.414L16.414 19.5zM4.86 17.152l-.934 3.423 3.423-.934-2.49-2.49z"/><path d="m21.164 8.75.629-.629a3 3 0 0 0 0-4.242L20.62 2.707a3 3 0 0 0-4.242 0l-.629.629 5.414 5.414z"/></svg>